<mxfile host="app.diagrams.net" agent="Mozilla/5.0 (Windows NT 10.0; Win64; x64) AppleWebKit/537.36 (KHTML, like Gecko) Chrome/134.0.0.0 Safari/537.36" version="26.1.0">
  <diagram id="C5RBs43oDa-KdzZeNtuy" name="Page-1">
    <mxGraphModel dx="1750" dy="928" grid="1" gridSize="10" guides="1" tooltips="1" connect="1" arrows="1" fold="1" page="1" pageScale="1" pageWidth="1169" pageHeight="827" math="0" shadow="0">
      <root>
        <mxCell id="WIyWlLk6GJQsqaUBKTNV-0" />
        <mxCell id="WIyWlLk6GJQsqaUBKTNV-1" parent="WIyWlLk6GJQsqaUBKTNV-0" />
        <mxCell id="FDaACF-QHcQ5N7-uDv2Q-49" style="edgeStyle=orthogonalEdgeStyle;rounded=0;orthogonalLoop=1;jettySize=auto;html=1;entryX=0.5;entryY=1;entryDx=0;entryDy=0;strokeWidth=1;exitX=0.5;exitY=0.5;exitDx=0;exitDy=0;exitPerimeter=0;" edge="1" parent="WIyWlLk6GJQsqaUBKTNV-1" source="FDaACF-QHcQ5N7-uDv2Q-0" target="FDaACF-QHcQ5N7-uDv2Q-43">
          <mxGeometry relative="1" as="geometry" />
        </mxCell>
        <mxCell id="FDaACF-QHcQ5N7-uDv2Q-0" value="&lt;font style=&quot;font-size: 26px;&quot;&gt;Administrador.&lt;/font&gt;" style="shape=umlActor;verticalLabelPosition=bottom;verticalAlign=top;html=1;outlineConnect=0;strokeWidth=1;perimeterSpacing=1;" vertex="1" parent="WIyWlLk6GJQsqaUBKTNV-1">
          <mxGeometry x="110" y="300" width="153" height="315" as="geometry" />
        </mxCell>
        <mxCell id="FDaACF-QHcQ5N7-uDv2Q-41" value="&lt;font style=&quot;font-size: 20px;&quot;&gt;Registro de usuario&lt;/font&gt;" style="ellipse;whiteSpace=wrap;html=1;strokeWidth=1;" vertex="1" parent="WIyWlLk6GJQsqaUBKTNV-1">
          <mxGeometry x="749" y="570" width="173" height="130" as="geometry" />
        </mxCell>
        <mxCell id="FDaACF-QHcQ5N7-uDv2Q-42" value="&lt;font style=&quot;font-size: 20px;&quot;&gt;Editar usuario.&lt;/font&gt;" style="ellipse;whiteSpace=wrap;html=1;strokeWidth=1;" vertex="1" parent="WIyWlLk6GJQsqaUBKTNV-1">
          <mxGeometry x="760" y="200" width="162" height="130" as="geometry" />
        </mxCell>
        <mxCell id="FDaACF-QHcQ5N7-uDv2Q-43" value="&lt;font style=&quot;font-size: 20px;&quot;&gt;Consulta de usuarios.&lt;/font&gt;" style="ellipse;whiteSpace=wrap;html=1;direction=south;strokeWidth=1;" vertex="1" parent="WIyWlLk6GJQsqaUBKTNV-1">
          <mxGeometry x="460" y="391.25" width="187" height="132.5" as="geometry" />
        </mxCell>
        <mxCell id="FDaACF-QHcQ5N7-uDv2Q-44" value="" style="endArrow=none;html=1;rounded=0;exitX=0;exitY=0;exitDx=0;exitDy=0;entryX=0;entryY=0.5;entryDx=0;entryDy=0;strokeWidth=1;" edge="1" parent="WIyWlLk6GJQsqaUBKTNV-1" source="FDaACF-QHcQ5N7-uDv2Q-43" target="FDaACF-QHcQ5N7-uDv2Q-42">
          <mxGeometry width="50" height="50" relative="1" as="geometry">
            <mxPoint x="553" y="460" as="sourcePoint" />
            <mxPoint x="603" y="410" as="targetPoint" />
          </mxGeometry>
        </mxCell>
        <mxCell id="FDaACF-QHcQ5N7-uDv2Q-46" value="" style="endArrow=none;html=1;rounded=0;exitX=1;exitY=0;exitDx=0;exitDy=0;entryX=0;entryY=0.5;entryDx=0;entryDy=0;strokeWidth=1;" edge="1" parent="WIyWlLk6GJQsqaUBKTNV-1" source="FDaACF-QHcQ5N7-uDv2Q-43" target="FDaACF-QHcQ5N7-uDv2Q-41">
          <mxGeometry width="50" height="50" relative="1" as="geometry">
            <mxPoint x="553" y="540" as="sourcePoint" />
            <mxPoint x="603" y="490" as="targetPoint" />
          </mxGeometry>
        </mxCell>
        <mxCell id="FDaACF-QHcQ5N7-uDv2Q-47" value="&lt;font style=&quot;font-size: 15px;&quot;&gt;&amp;lt;&amp;lt;extend&amp;gt;&amp;gt;&lt;/font&gt;" style="text;html=1;align=center;verticalAlign=middle;whiteSpace=wrap;rounded=0;strokeWidth=1;" vertex="1" parent="WIyWlLk6GJQsqaUBKTNV-1">
          <mxGeometry x="720" y="310" width="60" height="30" as="geometry" />
        </mxCell>
        <mxCell id="FDaACF-QHcQ5N7-uDv2Q-48" value="&lt;font style=&quot;font-size: 15px;&quot;&gt;&amp;lt;&amp;lt;extend&amp;gt;&amp;gt;&lt;/font&gt;" style="text;html=1;align=center;verticalAlign=middle;whiteSpace=wrap;rounded=0;strokeWidth=1;" vertex="1" parent="WIyWlLk6GJQsqaUBKTNV-1">
          <mxGeometry x="713.5" y="560" width="73" height="30" as="geometry" />
        </mxCell>
      </root>
    </mxGraphModel>
  </diagram>
</mxfile>
